DBRep_DrawableShape

CASCADE Topology V3, (c) Open Cascade
Locations 0
Curve2ds 0
Curves 156
1 0 -3000 0 0 0 1 
1 0 -3000 16 -0 1 0 
1 0 -2855 16 -0 1 0 
1 0 -3000 16 -0 1 0 
1 0 -2700 0 0 0 1 
1 0 -3000 0 -0 1 0 
1 0 -3000 0 1 0 -0 
1 12000 -3000 0 0 0 1 
1 0 -3000 16 1 0 -0 
1 0 -2855 16 1 0 -0 
1 12000 -3000 16 -0 1 0 
1 0 -2855 16 0 0 1 
1 0 -2855 884 -0 1 0 
1 0 -2845 16 0 0 1 
1 0 -2700 16 1 0 -0 
1 12000 -3000 16 -0 1 0 
1 0 -2845 16 1 0 -0 
1 0 -2700 0 1 0 -0 
1 12000 -2700 0 0 0 1 
1 12000 -3000 0 -0 1 0 
1 12000 -2855 16 -0 1 0 
1 12000 -2855 16 0 0 1 
1 0 -2855 884 1 0 -0 
1 0 -3000 884 0 0 1 
1 0 -3000 900 -0 1 0 
1 0 -2700 884 0 0 1 
1 0 -3000 884 -0 1 0 
1 0 -3000 884 -0 1 0 
1 12000 -2845 16 0 0 1 
1 0 -2845 884 1 0 -0 
1 12000 -2855 884 -0 1 0 
1 12000 -3000 884 -0 1 0 
1 0 -3000 884 1 0 -0 
1 12000 -3000 884 0 0 1 
1 0 -3000 900 1 0 -0 
1 0 -2700 900 1 0 -0 
1 12000 -3000 900 -0 1 0 
1 0 -2700 884 1 0 -0 
1 12000 -2700 884 0 0 1 
1 12000 -3000 884 -0 1 0 
1 0 0 0 0 0 1 
1 0 0 16 -0 1 0 
1 0 145 16 -0 1 0 
1 0 0 16 -0 1 0 
1 0 300 0 0 0 1 
1 0 0 0 -0 1 0 
1 0 0 0 1 0 -0 
1 12000 0 0 0 0 1 
1 0 0 16 1 0 -0 
1 0 145 16 1 0 -0 
1 12000 0 16 -0 1 0 
1 0 145 16 0 0 1 
1 0 145 884 -0 1 0 
1 0 155 16 0 0 1 
1 0 300 16 1 0 -0 
1 12000 0 16 -0 1 0 
1 0 155 16 1 0 -0 
1 0 300 0 1 0 -0 
1 12000 300 0 0 0 1 
1 12000 0 0 -0 1 0 
1 12000 145 16 -0 1 0 
1 12000 145 16 0 0 1 
1 0 145 884 1 0 -0 
1 0 0 884 0 0 1 
1 0 0 900 -0 1 0 
1 0 300 884 0 0 1 
1 0 0 884 -0 1 0 
1 0 0 884 -0 1 0 
1 12000 155 16 0 0 1 
1 0 155 884 1 0 -0 
1 12000 145 884 -0 1 0 
1 12000 0 884 -0 1 0 
1 0 0 884 1 0 -0 
1 12000 0 884 0 0 1 
1 0 0 900 1 0 -0 
1 0 300 900 1 0 -0 
1 12000 0 900 -0 1 0 
1 0 300 884 1 0 -0 
1 12000 300 884 0 0 1 
1 12000 0 884 -0 1 0 
1 0 3000 0 0 0 1 
1 0 3000 16 -0 1 0 
1 0 3145 16 -0 1 0 
1 0 3000 16 -0 1 0 
1 0 3300 0 0 0 1 
1 0 3000 0 -0 1 0 
1 0 3000 0 1 0 -0 
1 12000 3000 0 0 0 1 
1 0 3000 16 1 0 -0 
1 0 3145 16 1 0 -0 
1 12000 3000 16 -0 1 0 
1 0 3145 16 0 0 1 
1 0 3145 884 -0 1 0 
1 0 3155 16 0 0 1 
1 0 3300 16 1 0 -0 
1 12000 3000 16 -0 1 0 
1 0 3155 16 1 0 -0 
1 0 3300 0 1 0 -0 
1 12000 3300 0 0 0 1 
1 12000 3000 0 -0 1 0 
1 12000 3145 16 -0 1 0 
1 12000 3145 16 0 0 1 
1 0 3145 884 1 0 -0 
1 0 3000 884 0 0 1 
1 0 3000 900 -0 1 0 
1 0 3300 884 0 0 1 
1 0 3000 884 -0 1 0 
1 0 3000 884 -0 1 0 
1 12000 3155 16 0 0 1 
1 0 3155 884 1 0 -0 
1 12000 3145 884 -0 1 0 
1 12000 3000 884 -0 1 0 
1 0 3000 884 1 0 -0 
1 12000 3000 884 0 0 1 
1 0 3000 900 1 0 -0 
1 0 3300 900 1 0 -0 
1 12000 3000 900 -0 1 0 
1 0 3300 884 1 0 -0 
1 12000 3300 884 0 0 1 
1 12000 3000 884 -0 1 0 
1 0 -3500 900 0 0 1 
1 0 -3500 1100 -0 1 0 
1 0 3500 900 0 0 1 
1 0 -3500 900 -0 1 0 
1 12000 -3500 900 0 0 1 
1 12000 -3500 1100 -0 1 0 
1 12000 3500 900 0 0 1 
1 12000 -3500 900 -0 1 0 
1 0 -3500 900 1 0 -0 
1 0 -3500 1100 1 0 -0 
1 0 3500 900 1 0 -0 
1 0 3500 1100 1 0 -0 
1 0 -3650 1100 0 0 1 
1 0 -3650 2100 -0 1 0 
1 0 -3350 1100 0 0 1 
1 0 -3650 1100 -0 1 0 
1 12000 -3650 1100 0 0 1 
1 12000 -3650 2100 -0 1 0 
1 12000 -3350 1100 0 0 1 
1 12000 -3650 1100 -0 1 0 
1 0 -3650 1100 1 0 -0 
1 0 -3650 2100 1 0 -0 
1 0 -3350 1100 1 0 -0 
1 0 -3350 2100 1 0 -0 
1 0 3350 1100 0 0 1 
1 0 3350 2100 -0 1 0 
1 0 3650 1100 0 0 1 
1 0 3350 1100 -0 1 0 
1 12000 3350 1100 0 0 1 
1 12000 3350 2100 -0 1 0 
1 12000 3650 1100 0 0 1 
1 12000 3350 1100 -0 1 0 
1 0 3350 1100 1 0 -0 
1 0 3350 2100 1 0 -0 
1 0 3650 1100 1 0 -0 
1 0 3650 2100 1 0 -0 
Polygon3D 0
PolygonOnTriangulations 312
2 1 2 
p 48.0000000008 1 0 16 
2 1 3 
p 48.0000000008 1 0 16 
2 2 6 
p 48.0000000008 1 0 145 
2 1 2 
p 48.0000000008 1 0 145 
2 6 5 
p 48.0000000008 1 0 10 
2 1 3 
p 48.0000000008 1 0 10 
2 5 4 
p 48.0000000008 1 155 300 
2 1 2 
p 48.0000000008 1 155 300 
2 3 4 
p 48.0000000008 1 0 16 
2 1 3 
p 48.0000000008 1 0 16 
2 1 3 
p 48.0000000008 1 0 300 
2 1 2 
p 48.0000000008 1 0 300 
2 1 2 
p 48.0000000008 1 0 12000 
2 1 3 
p 48.0000000008 1 0 12000 
2 2 4 
p 48.0000000008 1 0 16 
2 1 2 
p 48.0000000008 1 0 16 
2 3 4 
p 48.0000000008 1 0 12000 
2 1 3 
p 48.0000000008 1 0 12000 
2 2 4 
p 48.0000000008 1 0 12000 
2 1 2 
p 48.0000000008 1 0 12000 
2 3 4 
p 48.0000000008 1 0 145 
2 2 6 
p 48.0000000008 1 0 145 
2 1 2 
p 48.0000000008 1 0 868 
2 1 3 
p 48.0000000008 1 0 868 
2 2 4 
p 48.0000000008 1 0 10 
2 3 4 
p 48.0000000008 1 0 10 
2 3 4 
p 48.0000000008 1 0 868 
2 1 3 
p 48.0000000008 1 0 868 
2 2 4 
p 48.0000000008 1 0 12000 
2 3 4 
p 48.0000000008 1 0 12000 
2 3 4 
p 48.0000000008 1 155 300 
2 5 4 
p 48.0000000008 1 155 300 
2 1 3 
p 48.0000000008 1 0 12000 
2 1 2 
p 48.0000000008 1 0 12000 
2 1 2 
p 48.0000000008 1 0 12000 
2 2 4 
p 48.0000000008 1 0 12000 
2 2 4 
p 48.0000000008 1 0 16 
2 3 4 
p 48.0000000008 1 0 16 
2 3 4 
p 48.0000000008 1 0 300 
2 1 3 
p 48.0000000008 1 0 300 
2 6 5 
p 48.0000000008 1 0 10 
2 1 3 
p 48.0000000008 1 0 10 
2 2 4 
p 48.0000000008 1 0 868 
2 1 2 
p 48.0000000008 1 0 868 
2 3 4 
p 48.0000000008 1 0 12000 
2 2 4 
p 48.0000000008 1 0 12000 
2 1 2 
p 48.0000000008 1 0 16 
2 1 3 
p 48.0000000008 1 0 16 
2 2 6 
p 48.0000000008 1 0 300 
2 1 2 
p 48.0000000008 1 0 300 
2 5 6 
p 48.0000000008 1 0 16 
2 1 3 
p 48.0000000008 1 0 16 
2 1 3 
p 48.0000000008 1 0 145 
2 1 2 
p 48.0000000008 1 0 145 
2 4 5 
p 48.0000000008 1 155 300 
2 1 2 
p 48.0000000008 1 155 300 
2 2 4 
p 48.0000000008 1 0 868 
2 3 4 
p 48.0000000008 1 0 868 
2 3 4 
p 48.0000000008 1 0 12000 
2 1 3 
p 48.0000000008 1 0 12000 
2 2 4 
p 48.0000000008 1 0 10 
2 3 4 
p 48.0000000008 1 0 10 
2 3 4 
p 48.0000000008 1 0 145 
2 1 3 
p 48.0000000008 1 0 145 
2 1 3 
p 48.0000000008 1 0 12000 
2 1 2 
p 48.0000000008 1 0 12000 
2 2 4 
p 48.0000000008 1 0 16 
2 1 2 
p 48.0000000008 1 0 16 
2 3 4 
p 48.0000000008 1 0 12000 
2 1 3 
p 48.0000000008 1 0 12000 
2 2 4 
p 48.0000000008 1 0 12000 
2 3 4 
p 48.0000000008 1 0 12000 
2 3 4 
p 48.0000000008 1 0 300 
2 2 6 
p 48.0000000008 1 0 300 
2 1 2 
p 48.0000000008 1 0 12000 
2 2 4 
p 48.0000000008 1 0 12000 
2 2 4 
p 48.0000000008 1 0 16 
2 5 6 
p 48.0000000008 1 0 16 
2 3 4 
p 48.0000000008 1 155 300 
2 4 5 
p 48.0000000008 1 155 300 
2 1 2 
p 48.0000000008 1 0 16 
2 1 3 
p 48.0000000008 1 0 16 
2 2 6 
p 48.0000000008 1 0 145 
2 1 2 
p 48.0000000008 1 0 145 
2 6 5 
p 48.0000000008 1 0 10 
2 1 3 
p 48.0000000008 1 0 10 
2 5 4 
p 48.0000000008 1 155 300 
2 1 2 
p 48.0000000008 1 155 300 
2 3 4 
p 48.0000000008 1 0 16 
2 1 3 
p 48.0000000008 1 0 16 
2 1 3 
p 48.0000000008 1 0 300 
2 1 2 
p 48.0000000008 1 0 300 
2 1 2 
p 48.0000000008 1 0 12000 
2 1 3 
p 48.0000000008 1 0 12000 
2 2 4 
p 48.0000000008 1 0 16 
2 1 2 
p 48.0000000008 1 0 16 
2 3 4 
p 48.0000000008 1 0 12000 
2 1 3 
p 48.0000000008 1 0 12000 
2 2 4 
p 48.0000000008 1 0 12000 
2 1 2 
p 48.0000000008 1 0 12000 
2 3 4 
p 48.0000000008 1 0 145 
2 2 6 
p 48.0000000008 1 0 145 
2 1 2 
p 48.0000000008 1 0 868 
2 1 3 
p 48.0000000008 1 0 868 
2 2 4 
p 48.0000000008 1 0 10 
2 3 4 
p 48.0000000008 1 0 10 
2 3 4 
p 48.0000000008 1 0 868 
2 1 3 
p 48.0000000008 1 0 868 
2 2 4 
p 48.0000000008 1 0 12000 
2 3 4 
p 48.0000000008 1 0 12000 
2 3 4 
p 48.0000000008 1 155 300 
2 5 4 
p 48.0000000008 1 155 300 
2 1 3 
p 48.0000000008 1 0 12000 
2 1 2 
p 48.0000000008 1 0 12000 
2 1 2 
p 48.0000000008 1 0 12000 
2 2 4 
p 48.0000000008 1 0 12000 
2 2 4 
p 48.0000000008 1 0 16 
2 3 4 
p 48.0000000008 1 0 16 
2 3 4 
p 48.0000000008 1 0 300 
2 1 3 
p 48.0000000008 1 0 300 
2 6 5 
p 48.0000000008 1 0 10 
2 1 3 
p 48.0000000008 1 0 10 
2 2 4 
p 48.0000000008 1 0 868 
2 1 2 
p 48.0000000008 1 0 868 
2 3 4 
p 48.0000000008 1 0 12000 
2 2 4 
p 48.0000000008 1 0 12000 
2 1 2 
p 48.0000000008 1 0 16 
2 1 3 
p 48.0000000008 1 0 16 
2 2 6 
p 48.0000000008 1 0 300 
2 1 2 
p 48.0000000008 1 0 300 
2 5 6 
p 48.0000000008 1 0 16 
2 1 3 
p 48.0000000008 1 0 16 
2 1 3 
p 48.0000000008 1 0 145 
2 1 2 
p 48.0000000008 1 0 145 
2 4 5 
p 48.0000000008 1 155 300 
2 1 2 
p 48.0000000008 1 155 300 
2 2 4 
p 48.0000000008 1 0 868 
2 3 4 
p 48.0000000008 1 0 868 
2 3 4 
p 48.0000000008 1 0 12000 
2 1 3 
p 48.0000000008 1 0 12000 
2 2 4 
p 48.0000000008 1 0 10 
2 3 4 
p 48.0000000008 1 0 10 
2 3 4 
p 48.0000000008 1 0 145 
2 1 3 
p 48.0000000008 1 0 145 
2 1 3 
p 48.0000000008 1 0 12000 
2 1 2 
p 48.0000000008 1 0 12000 
2 2 4 
p 48.0000000008 1 0 16 
2 1 2 
p 48.0000000008 1 0 16 
2 3 4 
p 48.0000000008 1 0 12000 
2 1 3 
p 48.0000000008 1 0 12000 
2 2 4 
p 48.0000000008 1 0 12000 
2 3 4 
p 48.0000000008 1 0 12000 
2 3 4 
p 48.0000000008 1 0 300 
2 2 6 
p 48.0000000008 1 0 300 
2 1 2 
p 48.0000000008 1 0 12000 
2 2 4 
p 48.0000000008 1 0 12000 
2 2 4 
p 48.0000000008 1 0 16 
2 5 6 
p 48.0000000008 1 0 16 
2 3 4 
p 48.0000000008 1 155 300 
2 4 5 
p 48.0000000008 1 155 300 
2 1 2 
p 48.0000000008 1 0 16 
2 1 3 
p 48.0000000008 1 0 16 
2 2 6 
p 48.0000000008 1 0 145 
2 1 2 
p 48.0000000008 1 0 145 
2 6 5 
p 48.0000000008 1 0 10 
2 1 3 
p 48.0000000008 1 0 10 
2 5 4 
p 48.0000000008 1 155 300 
2 1 2 
p 48.0000000008 1 155 300 
2 3 4 
p 48.0000000008 1 0 16 
2 1 3 
p 48.0000000008 1 0 16 
2 1 3 
p 48.0000000008 1 0 300 
2 1 2 
p 48.0000000008 1 0 300 
2 1 2 
p 48.0000000008 1 0 12000 
2 1 3 
p 48.0000000008 1 0 12000 
2 2 4 
p 48.0000000008 1 0 16 
2 1 2 
p 48.0000000008 1 0 16 
2 3 4 
p 48.0000000008 1 0 12000 
2 1 3 
p 48.0000000008 1 0 12000 
2 2 4 
p 48.0000000008 1 0 12000 
2 1 2 
p 48.0000000008 1 0 12000 
2 3 4 
p 48.0000000008 1 0 145 
2 2 6 
p 48.0000000008 1 0 145 
2 1 2 
p 48.0000000008 1 0 868 
2 1 3 
p 48.0000000008 1 0 868 
2 2 4 
p 48.0000000008 1 0 10 
2 3 4 
p 48.0000000008 1 0 10 
2 3 4 
p 48.0000000008 1 0 868 
2 1 3 
p 48.0000000008 1 0 868 
2 2 4 
p 48.0000000008 1 0 12000 
2 3 4 
p 48.0000000008 1 0 12000 
2 3 4 
p 48.0000000008 1 155 300 
2 5 4 
p 48.0000000008 1 155 300 
2 1 3 
p 48.0000000008 1 0 12000 
2 1 2 
p 48.0000000008 1 0 12000 
2 1 2 
p 48.0000000008 1 0 12000 
2 2 4 
p 48.0000000008 1 0 12000 
2 2 4 
p 48.0000000008 1 0 16 
2 3 4 
p 48.0000000008 1 0 16 
2 3 4 
p 48.0000000008 1 0 300 
2 1 3 
p 48.0000000008 1 0 300 
2 6 5 
p 48.0000000008 1 0 10 
2 1 3 
p 48.0000000008 1 0 10 
2 2 4 
p 48.0000000008 1 0 868 
2 1 2 
p 48.0000000008 1 0 868 
2 3 4 
p 48.0000000008 1 0 12000 
2 2 4 
p 48.0000000008 1 0 12000 
2 1 2 
p 48.0000000008 1 0 16 
2 1 3 
p 48.0000000008 1 0 16 
2 2 6 
p 48.0000000008 1 0 300 
2 1 2 
p 48.0000000008 1 0 300 
2 5 6 
p 48.0000000008 1 0 16 
2 1 3 
p 48.0000000008 1 0 16 
2 1 3 
p 48.0000000008 1 0 145 
2 1 2 
p 48.0000000008 1 0 145 
2 4 5 
p 48.0000000008 1 155 300 
2 1 2 
p 48.0000000008 1 155 300 
2 2 4 
p 48.0000000008 1 0 868 
2 3 4 
p 48.0000000008 1 0 868 
2 3 4 
p 48.0000000008 1 0 12000 
2 1 3 
p 48.0000000008 1 0 12000 
2 2 4 
p 48.0000000008 1 0 10 
2 3 4 
p 48.0000000008 1 0 10 
2 3 4 
p 48.0000000008 1 0 145 
2 1 3 
p 48.0000000008 1 0 145 
2 1 3 
p 48.0000000008 1 0 12000 
2 1 2 
p 48.0000000008 1 0 12000 
2 2 4 
p 48.0000000008 1 0 16 
2 1 2 
p 48.0000000008 1 0 16 
2 3 4 
p 48.0000000008 1 0 12000 
2 1 3 
p 48.0000000008 1 0 12000 
2 2 4 
p 48.0000000008 1 0 12000 
2 3 4 
p 48.0000000008 1 0 12000 
2 3 4 
p 48.0000000008 1 0 300 
2 2 6 
p 48.0000000008 1 0 300 
2 1 2 
p 48.0000000008 1 0 12000 
2 2 4 
p 48.0000000008 1 0 12000 
2 2 4 
p 48.0000000008 1 0 16 
2 5 6 
p 48.0000000008 1 0 16 
2 3 4 
p 48.0000000008 1 155 300 
2 4 5 
p 48.0000000008 1 155 300 
2 1 2 
p 48.0000000008 1 0 200 
2 1 3 
p 48.0000000008 1 0 200 
2 2 4 
p 48.0000000008 1 0 7000 
2 1 2 
p 48.0000000008 1 0 7000 
2 3 4 
p 48.0000000008 1 0 200 
2 1 3 
p 48.0000000008 1 0 200 
2 1 3 
p 48.0000000008 1 0 7000 
2 1 2 
p 48.0000000008 1 0 7000 
2 1 2 
p 48.0000000008 1 0 200 
2 2 4 
p 48.0000000008 1 0 200 
2 2 4 
p 48.0000000008 1 0 7000 
2 3 4 
p 48.0000000008 1 0 7000 
2 3 4 
p 48.0000000008 1 0 200 
2 2 4 
p 48.0000000008 1 0 200 
2 1 3 
p 48.0000000008 1 0 7000 
2 3 4 
p 48.0000000008 1 0 7000 
2 1 2 
p 48.0000000008 1 0 12000 
2 1 3 
p 48.0000000008 1 0 12000 
2 3 4 
p 48.0000000008 1 0 12000 
2 1 3 
p 48.0000000008 1 0 12000 
2 1 2 
p 48.0000000008 1 0 12000 
2 2 4 
p 48.0000000008 1 0 12000 
2 3 4 
p 48.0000000008 1 0 12000 
2 2 4 
p 48.0000000008 1 0 12000 
2 1 2 
p 48.0000000008 1 0 1000 
2 1 3 
p 48.0000000008 1 0 1000 
2 2 4 
p 48.0000000008 1 0 300 
2 1 2 
p 48.0000000008 1 0 300 
2 3 4 
p 48.0000000008 1 0 1000 
2 1 3 
p 48.0000000008 1 0 1000 
2 1 3 
p 48.0000000008 1 0 300 
2 1 2 
p 48.0000000008 1 0 300 
2 1 2 
p 48.0000000008 1 0 1000 
2 2 4 
p 48.0000000008 1 0 1000 
2 2 4 
p 48.0000000008 1 0 300 
2 3 4 
p 48.0000000008 1 0 300 
2 3 4 
p 48.0000000008 1 0 1000 
2 2 4 
p 48.0000000008 1 0 1000 
2 1 3 
p 48.0000000008 1 0 300 
2 3 4 
p 48.0000000008 1 0 300 
2 1 2 
p 48.0000000008 1 0 12000 
2 1 3 
p 48.0000000008 1 0 12000 
2 3 4 
p 48.0000000008 1 0 12000 
2 1 3 
p 48.0000000008 1 0 12000 
2 1 2 
p 48.0000000008 1 0 12000 
2 2 4 
p 48.0000000008 1 0 12000 
2 3 4 
p 48.0000000008 1 0 12000 
2 2 4 
p 48.0000000008 1 0 12000 
2 1 2 
p 48.0000000008 1 0 1000 
2 1 3 
p 48.0000000008 1 0 1000 
2 2 4 
p 48.0000000008 1 0 300 
2 1 2 
p 48.0000000008 1 0 300 
2 3 4 
p 48.0000000008 1 0 1000 
2 1 3 
p 48.0000000008 1 0 1000 
2 1 3 
p 48.0000000008 1 0 300 
2 1 2 
p 48.0000000008 1 0 300 
2 1 2 
p 48.0000000008 1 0 1000 
2 2 4 
p 48.0000000008 1 0 1000 
2 2 4 
p 48.0000000008 1 0 300 
2 3 4 
p 48.0000000008 1 0 300 
2 3 4 
p 48.0000000008 1 0 1000 
2 2 4 
p 48.0000000008 1 0 1000 
2 1 3 
p 48.0000000008 1 0 300 
2 3 4 
p 48.0000000008 1 0 300 
2 1 2 
p 48.0000000008 1 0 12000 
2 1 3 
p 48.0000000008 1 0 12000 
2 3 4 
p 48.0000000008 1 0 12000 
2 1 3 
p 48.0000000008 1 0 12000 
2 1 2 
p 48.0000000008 1 0 12000 
2 2 4 
p 48.0000000008 1 0 12000 
2 3 4 
p 48.0000000008 1 0 12000 
2 2 4 
p 48.0000000008 1 0 12000 
Surfaces 72
1 0 -3000 0 1 0 -0 0 0 1 0 -1 0 
1 0 -3000 0 -0 1 0 0 0 1 1 0 -0 
1 0 -3000 16 0 0 1 1 0 -0 -0 1 0 
1 0 -2855 16 1 0 -0 0 0 1 0 -1 0 
1 0 -3000 16 0 0 1 1 0 -0 -0 1 0 
1 0 -2700 0 -0 1 0 0 0 1 1 0 -0 
1 0 -3000 0 0 0 1 1 0 -0 -0 1 0 
1 12000 -3000 0 1 0 -0 0 0 1 0 -1 0 
1 0 -2855 16 -0 1 0 0 0 1 1 0 -0 
1 0 -3000 884 1 0 -0 0 0 1 0 -1 0 
1 0 -2845 16 -0 1 0 0 0 1 1 0 -0 
1 12000 -2855 16 1 0 -0 0 0 1 0 -1 0 
1 0 -3000 884 0 0 1 1 0 -0 -0 1 0 
1 0 -3000 884 -0 1 0 0 0 1 1 0 -0 
1 0 -3000 900 0 0 1 1 0 -0 -0 1 0 
1 0 -2700 884 -0 1 0 0 0 1 1 0 -0 
1 0 -3000 884 0 0 1 1 0 -0 -0 1 0 
1 12000 -3000 884 1 0 -0 0 0 1 0 -1 0 
1 0 0 0 1 0 -0 0 0 1 0 -1 0 
1 0 0 0 -0 1 0 0 0 1 1 0 -0 
1 0 0 16 0 0 1 1 0 -0 -0 1 0 
1 0 145 16 1 0 -0 0 0 1 0 -1 0 
1 0 0 16 0 0 1 1 0 -0 -0 1 0 
1 0 300 0 -0 1 0 0 0 1 1 0 -0 
1 0 0 0 0 0 1 1 0 -0 -0 1 0 
1 12000 0 0 1 0 -0 0 0 1 0 -1 0 
1 0 145 16 -0 1 0 0 0 1 1 0 -0 
1 0 0 884 1 0 -0 0 0 1 0 -1 0 
1 0 155 16 -0 1 0 0 0 1 1 0 -0 
1 12000 145 16 1 0 -0 0 0 1 0 -1 0 
1 0 0 884 0 0 1 1 0 -0 -0 1 0 
1 0 0 884 -0 1 0 0 0 1 1 0 -0 
1 0 0 900 0 0 1 1 0 -0 -0 1 0 
1 0 300 884 -0 1 0 0 0 1 1 0 -0 
1 0 0 884 0 0 1 1 0 -0 -0 1 0 
1 12000 0 884 1 0 -0 0 0 1 0 -1 0 
1 0 3000 0 1 0 -0 0 0 1 0 -1 0 
1 0 3000 0 -0 1 0 0 0 1 1 0 -0 
1 0 3000 16 0 0 1 1 0 -0 -0 1 0 
1 0 3145 16 1 0 -0 0 0 1 0 -1 0 
1 0 3000 16 0 0 1 1 0 -0 -0 1 0 
1 0 3300 0 -0 1 0 0 0 1 1 0 -0 
1 0 3000 0 0 0 1 1 0 -0 -0 1 0 
1 12000 3000 0 1 0 -0 0 0 1 0 -1 0 
1 0 3145 16 -0 1 0 0 0 1 1 0 -0 
1 0 3000 884 1 0 -0 0 0 1 0 -1 0 
1 0 3155 16 -0 1 0 0 0 1 1 0 -0 
1 12000 3145 16 1 0 -0 0 0 1 0 -1 0 
1 0 3000 884 0 0 1 1 0 -0 -0 1 0 
1 0 3000 884 -0 1 0 0 0 1 1 0 -0 
1 0 3000 900 0 0 1 1 0 -0 -0 1 0 
1 0 3300 884 -0 1 0 0 0 1 1 0 -0 
1 0 3000 884 0 0 1 1 0 -0 -0 1 0 
1 12000 3000 884 1 0 -0 0 0 1 0 -1 0 
1 0 -3500 900 1 0 -0 0 0 1 0 -1 0 
1 12000 -3500 900 1 0 -0 0 0 1 0 -1 0 
1 0 -3500 900 -0 1 0 0 0 1 1 0 -0 
1 0 3500 900 -0 1 0 0 0 1 1 0 -0 
1 0 -3500 900 0 0 1 1 0 -0 -0 1 0 
1 0 -3500 1100 0 0 1 1 0 -0 -0 1 0 
1 0 -3650 1100 1 0 -0 0 0 1 0 -1 0 
1 12000 -3650 1100 1 0 -0 0 0 1 0 -1 0 
1 0 -3650 1100 -0 1 0 0 0 1 1 0 -0 
1 0 -3350 1100 -0 1 0 0 0 1 1 0 -0 
1 0 -3650 1100 0 0 1 1 0 -0 -0 1 0 
1 0 -3650 2100 0 0 1 1 0 -0 -0 1 0 
1 0 3350 1100 1 0 -0 0 0 1 0 -1 0 
1 12000 3350 1100 1 0 -0 0 0 1 0 -1 0 
1 0 3350 1100 -0 1 0 0 0 1 1 0 -0 
1 0 3650 1100 -0 1 0 0 0 1 1 0 -0 
1 0 3350 1100 0 0 1 1 0 -0 -0 1 0 
1 0 3350 2100 0 0 1 1 0 -0 -0 1 0 
Triangulations 72
6 4 1 0 0
0 -3000 0 0 -3000 16 0 -2700 0 0 -2700 16 0 -2845 16 0 -2855 16 0 0 16 0 0 -300 16 -300 16 -155 16 -145 5 3 4 2 1 6 1 3 5 1 5 6 
4 2 1 0 0
0 -3000 0 12000 -3000 0 0 -3000 16 12000 -3000 16 0 0 0 12000 16 0 16 12000 4 2 1 4 1 3 
4 2 1 0 0
0 -3000 16 0 -2855 16 12000 -3000 16 12000 -2855 16 0 0 0 145 12000 0 12000 145 4 2 1 4 1 3 
4 2 1 0 0
0 -2855 16 0 -2855 884 0 -2845 16 0 -2845 884 0 0 868 0 0 -10 868 -10 4 1 3 2 1 4 
4 2 1 0 0
0 -2845 16 0 -2700 16 12000 -2845 16 12000 -2700 16 0 155 0 300 12000 155 12000 300 4 2 1 4 1 3 
4 2 1 0 0
0 -2700 0 12000 -2700 0 0 -2700 16 12000 -2700 16 0 0 0 12000 16 0 16 12000 4 2 1 4 1 3 
4 2 1 0 0
0 -3000 0 0 -2700 0 12000 -3000 0 12000 -2700 0 0 0 0 300 12000 0 12000 300 4 2 1 4 1 3 
6 4 1 0 0
12000 -3000 0 12000 -3000 16 12000 -2700 0 12000 -2700 16 12000 -2845 16 12000 -2855 16 0 0 16 0 0 -300 16 -300 16 -155 16 -145 5 3 4 2 1 6 1 3 5 1 5 6 
4 2 1 0 0
0 -2855 16 12000 -2855 16 0 -2855 884 12000 -2855 884 0 0 0 12000 868 0 868 12000 4 2 1 4 1 3 
6 4 1 0 0
0 -3000 884 0 -3000 900 0 -2855 884 0 -2845 884 0 -2700 884 0 -2700 900 0 0 16 0 0 -145 0 -155 0 -300 16 -300 4 5 6 2 1 3 6 2 3 6 3 4 
4 2 1 0 0
0 -2845 16 12000 -2845 16 0 -2845 884 12000 -2845 884 0 0 0 12000 868 0 868 12000 4 2 1 4 1 3 
4 2 1 0 0
12000 -2855 16 12000 -2855 884 12000 -2845 16 12000 -2845 884 0 0 868 0 0 -10 868 -10 4 1 3 2 1 4 
4 2 1 0 0
0 -3000 884 0 -2855 884 12000 -3000 884 12000 -2855 884 0 0 0 145 12000 0 12000 145 4 2 1 4 1 3 
4 2 1 0 0
0 -3000 884 12000 -3000 884 0 -3000 900 12000 -3000 900 0 0 0 12000 16 0 16 12000 4 2 1 4 1 3 
4 2 1 0 0
0 -3000 900 0 -2700 900 12000 -3000 900 12000 -2700 900 0 0 0 300 12000 0 12000 300 4 2 1 4 1 3 
4 2 1 0 0
0 -2700 884 12000 -2700 884 0 -2700 900 12000 -2700 900 0 0 0 12000 16 0 16 12000 4 2 1 4 1 3 
4 2 1 0 0
0 -2845 884 0 -2700 884 12000 -2845 884 12000 -2700 884 0 155 0 300 12000 155 12000 300 4 2 1 4 1 3 
6 4 1 0 0
12000 -3000 884 12000 -3000 900 12000 -2855 884 12000 -2845 884 12000 -2700 884 12000 -2700 900 0 0 16 0 0 -145 0 -155 0 -300 16 -300 4 5 6 2 1 3 6 2 3 6 3 4 
6 4 1 0 0
0 0 0 0 0 16 0 300 0 0 300 16 0 155 16 0 145 16 0 0 16 0 0 -300 16 -300 16 -155 16 -145 5 3 4 2 1 6 1 3 5 1 5 6 
4 2 1 0 0
0 0 0 12000 0 0 0 0 16 12000 0 16 0 0 0 12000 16 0 16 12000 4 2 1 4 1 3 
4 2 1 0 0
0 0 16 0 145 16 12000 0 16 12000 145 16 0 0 0 145 12000 0 12000 145 4 2 1 4 1 3 
4 2 1 0 0
0 145 16 0 145 884 0 155 16 0 155 884 0 0 868 0 0 -10 868 -10 4 1 3 2 1 4 
4 2 1 0 0
0 155 16 0 300 16 12000 155 16 12000 300 16 0 155 0 300 12000 155 12000 300 4 2 1 4 1 3 
4 2 1 0 0
0 300 0 12000 300 0 0 300 16 12000 300 16 0 0 0 12000 16 0 16 12000 4 2 1 4 1 3 
4 2 1 0 0
0 0 0 0 300 0 12000 0 0 12000 300 0 0 0 0 300 12000 0 12000 300 4 2 1 4 1 3 
6 4 1 0 0
12000 0 0 12000 0 16 12000 300 0 12000 300 16 12000 155 16 12000 145 16 0 0 16 0 0 -300 16 -300 16 -155 16 -145 5 3 4 2 1 6 1 3 5 1 5 6 
4 2 1 0 0
0 145 16 12000 145 16 0 145 884 12000 145 884 0 0 0 12000 868 0 868 12000 4 2 1 4 1 3 
6 4 1 0 0
0 0 884 0 0 900 0 145 884 0 155 884 0 300 884 0 300 900 0 0 16 0 0 -145 0 -155 0 -300 16 -300 4 5 6 2 1 3 6 2 3 6 3 4 
4 2 1 0 0
0 155 16 12000 155 16 0 155 884 12000 155 884 0 0 0 12000 868 0 868 12000 4 2 1 4 1 3 
4 2 1 0 0
12000 145 16 12000 145 884 12000 155 16 12000 155 884 0 0 868 0 0 -10 868 -10 4 1 3 2 1 4 
4 2 1 0 0
0 0 884 0 145 884 12000 0 884 12000 145 884 0 0 0 145 12000 0 12000 145 4 2 1 4 1 3 
4 2 1 0 0
0 0 884 12000 0 884 0 0 900 12000 0 900 0 0 0 12000 16 0 16 12000 4 2 1 4 1 3 
4 2 1 0 0
0 0 900 0 300 900 12000 0 900 12000 300 900 0 0 0 300 12000 0 12000 300 4 2 1 4 1 3 
4 2 1 0 0
0 300 884 12000 300 884 0 300 900 12000 300 900 0 0 0 12000 16 0 16 12000 4 2 1 4 1 3 
4 2 1 0 0
0 155 884 0 300 884 12000 155 884 12000 300 884 0 155 0 300 12000 155 12000 300 4 2 1 4 1 3 
6 4 1 0 0
12000 0 884 12000 0 900 12000 145 884 12000 155 884 12000 300 884 12000 300 900 0 0 16 0 0 -145 0 -155 0 -300 16 -300 4 5 6 2 1 3 6 2 3 6 3 4 
6 4 1 0 0
0 3000 0 0 3000 16 0 3300 0 0 3300 16 0 3155 16 0 3145 16 0 0 16 0 0 -300 16 -300 16 -155 16 -145 5 3 4 2 1 6 1 3 5 1 5 6 
4 2 1 0 0
0 3000 0 12000 3000 0 0 3000 16 12000 3000 16 0 0 0 12000 16 0 16 12000 4 2 1 4 1 3 
4 2 1 0 0
0 3000 16 0 3145 16 12000 3000 16 12000 3145 16 0 0 0 145 12000 0 12000 145 4 2 1 4 1 3 
4 2 1 0 0
0 3145 16 0 3145 884 0 3155 16 0 3155 884 0 0 868 0 0 -10 868 -10 4 1 3 2 1 4 
4 2 1 0 0
0 3155 16 0 3300 16 12000 3155 16 12000 3300 16 0 155 0 300 12000 155 12000 300 4 2 1 4 1 3 
4 2 1 0 0
0 3300 0 12000 3300 0 0 3300 16 12000 3300 16 0 0 0 12000 16 0 16 12000 4 2 1 4 1 3 
4 2 1 0 0
0 3000 0 0 3300 0 12000 3000 0 12000 3300 0 0 0 0 300 12000 0 12000 300 4 2 1 4 1 3 
6 4 1 0 0
12000 3000 0 12000 3000 16 12000 3300 0 12000 3300 16 12000 3155 16 12000 3145 16 0 0 16 0 0 -300 16 -300 16 -155 16 -145 5 3 4 2 1 6 1 3 5 1 5 6 
4 2 1 0 0
0 3145 16 12000 3145 16 0 3145 884 12000 3145 884 0 0 0 12000 868 0 868 12000 4 2 1 4 1 3 
6 4 1 0 0
0 3000 884 0 3000 900 0 3145 884 0 3155 884 0 3300 884 0 3300 900 0 0 16 0 0 -145 0 -155 0 -300 16 -300 4 5 6 2 1 3 6 2 3 6 3 4 
4 2 1 0 0
0 3155 16 12000 3155 16 0 3155 884 12000 3155 884 0 0 0 12000 868 0 868 12000 4 2 1 4 1 3 
4 2 1 0 0
12000 3145 16 12000 3145 884 12000 3155 16 12000 3155 884 0 0 868 0 0 -10 868 -10 4 1 3 2 1 4 
4 2 1 0 0
0 3000 884 0 3145 884 12000 3000 884 12000 3145 884 0 0 0 145 12000 0 12000 145 4 2 1 4 1 3 
4 2 1 0 0
0 3000 884 12000 3000 884 0 3000 900 12000 3000 900 0 0 0 12000 16 0 16 12000 4 2 1 4 1 3 
4 2 1 0 0
0 3000 900 0 3300 900 12000 3000 900 12000 3300 900 0 0 0 300 12000 0 12000 300 4 2 1 4 1 3 
4 2 1 0 0
0 3300 884 12000 3300 884 0 3300 900 12000 3300 900 0 0 0 12000 16 0 16 12000 4 2 1 4 1 3 
4 2 1 0 0
0 3155 884 0 3300 884 12000 3155 884 12000 3300 884 0 155 0 300 12000 155 12000 300 4 2 1 4 1 3 
6 4 1 0 0
12000 3000 884 12000 3000 900 12000 3145 884 12000 3155 884 12000 3300 884 12000 3300 900 0 0 16 0 0 -145 0 -155 0 -300 16 -300 4 5 6 2 1 3 6 2 3 6 3 4 
4 2 1 0 2.27373675443232e-13
0 -3500 900 0 -3500 1100 0 3500 900 0 3500 1100 0 0 200 0 0 -7000 200 -7000 2 1 3 2 3 4 
4 2 1 0 0
0 -3500 900 12000 -3500 900 0 -3500 1100 12000 -3500 1100 0 0 0 12000 200 0 200 12000 4 2 1 4 1 3 
4 2 1 0 2.27373675443232e-13
0 -3500 1100 0 3500 1100 12000 -3500 1100 12000 3500 1100 0 0 0 7000 12000 0 12000 7000 4 2 1 4 1 3 
4 2 1 0 0
0 3500 900 12000 3500 900 0 3500 1100 12000 3500 1100 0 0 0 12000 200 0 200 12000 4 2 1 4 1 3 
4 2 1 0 2.27373675443232e-13
0 -3500 900 0 3500 900 12000 -3500 900 12000 3500 900 0 0 0 7000 12000 0 12000 7000 4 2 1 4 1 3 
4 2 1 0 2.27373675443232e-13
12000 -3500 900 12000 -3500 1100 12000 3500 900 12000 3500 1100 0 0 200 0 0 -7000 200 -7000 2 1 3 2 3 4 
4 2 1 0 2.27373675443232e-13
0 -3650 1100 0 -3650 2100 0 -3350 1100 0 -3350 2100 0 0 1000 0 0 -300 1000 -300 2 1 3 2 3 4 
4 2 1 0 2.27373675443232e-13
0 -3650 1100 12000 -3650 1100 0 -3650 2100 12000 -3650 2100 0 0 0 12000 1000 0 1000 12000 4 2 1 4 1 3 
4 2 1 0 0
0 -3650 2100 0 -3350 2100 12000 -3650 2100 12000 -3350 2100 0 0 0 300 12000 0 12000 300 4 2 1 4 1 3 
4 2 1 0 2.27373675443232e-13
0 -3350 1100 12000 -3350 1100 0 -3350 2100 12000 -3350 2100 0 0 0 12000 1000 0 1000 12000 4 2 1 4 1 3 
4 2 1 0 0
0 -3650 1100 0 -3350 1100 12000 -3650 1100 12000 -3350 1100 0 0 0 300 12000 0 12000 300 4 2 1 4 1 3 
4 2 1 0 2.27373675443232e-13
12000 -3650 1100 12000 -3650 2100 12000 -3350 1100 12000 -3350 2100 0 0 1000 0 0 -300 1000 -300 2 1 3 2 3 4 
4 2 1 0 2.27373675443232e-13
0 3350 1100 0 3350 2100 0 3650 1100 0 3650 2100 0 0 1000 0 0 -300 1000 -300 2 1 3 2 3 4 
4 2 1 0 2.27373675443232e-13
0 3350 1100 12000 3350 1100 0 3350 2100 12000 3350 2100 0 0 0 12000 1000 0 1000 12000 4 2 1 4 1 3 
4 2 1 0 0
0 3350 2100 0 3650 2100 12000 3350 2100 12000 3650 2100 0 0 0 300 12000 0 12000 300 4 2 1 4 1 3 
4 2 1 0 2.27373675443232e-13
0 3650 1100 12000 3650 1100 0 3650 2100 12000 3650 2100 0 0 0 12000 1000 0 1000 12000 4 2 1 4 1 3 
4 2 1 0 0
0 3350 1100 0 3650 1100 12000 3350 1100 12000 3650 1100 0 0 0 300 12000 0 12000 300 4 2 1 4 1 3 
4 2 1 0 2.27373675443232e-13
12000 3350 1100 12000 3350 2100 12000 3650 1100 12000 3650 2100 0 0 1000 0 0 -300 1000 -300 2 1 3 2 3 4 

TShapes 412
Ve
1e-07
0 -3000 16
0 0

0101101
*
Ve
1e-07
0 -3000 0
0 0

0101101
*
Ed
 1e-07 1 1 0
1  1 0 0 16
6  1 1 0
6  2 2 0
0

0101000
-412 0 +411 0 *
Ve
1e-07
0 -2855 16
0 0

0101101
*
Ed
 1e-07 1 1 0
1  2 0 0 145
6  3 1 0
6  4 3 0
0

0101000
+412 0 -409 0 *
Ve
1e-07
0 -2845 16
0 0

0101101
*
Ed
 1e-07 1 1 0
1  3 0 0 10
6  5 1 0
6  6 4 0
0

0101000
-407 0 +409 0 *
Ve
1e-07
0 -2700 16
0 0

0101101
*
Ed
 1e-07 1 1 0
1  4 0 155 300
6  7 1 0
6  8 5 0
0

0101000
+407 0 -405 0 *
Ve
1e-07
0 -2700 0
0 0

0101101
*
Ed
 1e-07 1 1 0
1  5 0 0 16
6  9 1 0
6  10 6 0
0

0101000
-405 0 +403 0 *
Ed
 1e-07 1 1 0
1  6 0 0 300
6  11 1 0
6  12 7 0
0

0101000
-403 0 +411 0 *
Wi

0101100
-410 0 -408 0 -406 0 -404 0 +402 0 +401 0 *
Fa
0  1e-07 1 0
2  1
0101000
+400 0 *
Ve
1e-07
12000 -3000 0
0 0

0101101
*
Ed
 1e-07 1 1 0
1  7 0 0 12000
6  13 2 0
6  14 7 0
0

0101000
-398 0 +411 0 *
Ve
1e-07
12000 -3000 16
0 0

0101101
*
Ed
 1e-07 1 1 0
1  8 0 0 16
6  15 2 0
6  16 8 0
0

0101000
-396 0 +398 0 *
Ed
 1e-07 1 1 0
1  9 0 0 12000
6  17 2 0
6  18 3 0
0

0101000
-396 0 +412 0 *
Wi

0101100
-397 0 -395 0 +394 0 +410 0 *
Fa
0  1e-07 2 0
2  2
0101000
+393 0 *
Ve
1e-07
12000 -2855 16
0 0

0101101
*
Ed
 1e-07 1 1 0
1  10 0 0 12000
6  19 3 0
6  20 9 0
0

0101000
-391 0 +409 0 *
Ed
 1e-07 1 1 0
1  11 0 0 145
6  21 3 0
6  22 8 0
0

0101000
+396 0 -391 0 *
Wi

0101100
-408 0 -390 0 +389 0 +394 0 *
Fa
0  1e-07 3 0
2  3
0101000
+388 0 *
Ve
1e-07
0 -2855 884
0 0

0101101
*
Ed
 1e-07 1 1 0
1  12 0 0 868
6  23 4 0
6  24 9 0
0

0101000
-386 0 +409 0 *
Ve
1e-07
0 -2845 884
0 0

0101101
*
Ed
 1e-07 1 1 0
1  13 0 0 10
6  25 4 0
6  26 10 0
0

0101000
-384 0 +386 0 *
Ed
 1e-07 1 1 0
1  14 0 0 868
6  27 4 0
6  28 11 0
0

0101000
-384 0 +407 0 *
Wi

0101100
-385 0 -383 0 +382 0 +406 0 *
Fa
0  1e-07 4 0
2  4
0101000
+381 0 *
Ve
1e-07
12000 -2700 16
0 0

0101101
*
Ed
 1e-07 1 1 0
1  15 0 0 12000
6  29 5 0
6  30 6 0
0

0101000
-379 0 +405 0 *
Ve
1e-07
12000 -2845 16
0 0

0101101
*
Ed
 1e-07 1 1 0
1  16 0 155 300
6  31 5 0
6  32 8 0
0

0101000
+377 0 -379 0 *
Ed
 1e-07 1 1 0
1  17 0 0 12000
6  33 5 0
6  34 11 0
0

0101000
-377 0 +407 0 *
Wi

0101100
-404 0 -378 0 +376 0 +375 0 *
Fa
0  1e-07 5 0
2  5
0101000
+374 0 *
Ve
1e-07
12000 -2700 0
0 0

0101101
*
Ed
 1e-07 1 1 0
1  18 0 0 12000
6  35 6 0
6  36 7 0
0

0101000
-372 0 +403 0 *
Ed
 1e-07 1 1 0
1  19 0 0 16
6  37 6 0
6  38 8 0
0

0101000
-379 0 +372 0 *
Wi

0101100
-371 0 -370 0 +378 0 +402 0 *
Fa
0  1e-07 6 0
2  6
0101000
+369 0 *
Ed
 1e-07 1 1 0
1  20 0 0 300
6  39 7 0
6  40 8 0
0

0101000
-372 0 +398 0 *
Wi

0101100
-401 0 -371 0 +367 0 +397 0 *
Fa
0  1e-07 7 0
2  7
0101000
+366 0 *
Ed
 1e-07 1 1 0
1  21 0 0 10
6  41 8 0
6  42 12 0
0

0101000
-377 0 +391 0 *
Wi

0101100
-395 0 -389 0 -364 0 -376 0 +370 0 +367 0 *
Fa
0  1e-07 8 0
2  8
0101000
+363 0 *
Ve
1e-07
12000 -2855 884
0 0

0101101
*
Ed
 1e-07 1 1 0
1  22 0 0 868
6  43 9 0
6  44 12 0
0

0101000
-361 0 +391 0 *
Ed
 1e-07 1 1 0
1  23 0 0 12000
6  45 9 0
6  46 13 0
0

0101000
-361 0 +386 0 *
Wi

0101100
-390 0 -360 0 +359 0 +385 0 *
Fa
0  1e-07 9 0
2  9
0101000
+358 0 *
Ve
1e-07
0 -3000 900
0 0

0101101
*
Ve
1e-07
0 -3000 884
0 0

0101101
*
Ed
 1e-07 1 1 0
1  24 0 0 16
6  47 10 0
6  48 14 0
0

0101000
-356 0 +355 0 *
Ve
1e-07
0 -2700 900
0 0

0101101
*
Ed
 1e-07 1 1 0
1  25 0 0 300
6  49 10 0
6  50 15 0
0

0101000
-353 0 +356 0 *
Ve
1e-07
0 -2700 884
0 0

0101101
*
Ed
 1e-07 1 1 0
1  26 0 0 16
6  51 10 0
6  52 16 0
0

0101000
-353 0 +351 0 *
Ed
 1e-07 1 1 0
1  27 0 0 145
6  53 10 0
6  54 13 0
0

0101000
+355 0 -386 0 *
Ed
 1e-07 1 1 0
1  28 0 155 300
6  55 10 0
6  56 17 0
0

0101000
+384 0 -351 0 *
Wi

0101100
-354 0 -352 0 +350 0 +349 0 +383 0 +348 0 *
Fa
0  1e-07 10 0
2  10
0101000
+347 0 *
Ve
1e-07
12000 -2845 884
0 0

0101101
*
Ed
 1e-07 1 1 0
1  29 0 0 868
6  57 11 0
6  58 12 0
0

0101000
-345 0 +377 0 *
Ed
 1e-07 1 1 0
1  30 0 0 12000
6  59 11 0
6  60 17 0
0

0101000
-345 0 +384 0 *
Wi

0101100
-375 0 -344 0 +343 0 +382 0 *
Fa
0  1e-07 11 0
2  11
0101000
+342 0 *
Ed
 1e-07 1 1 0
1  31 0 0 10
6  61 12 0
6  62 18 0
0

0101000
-345 0 +361 0 *
Wi

0101100
-360 0 -340 0 +344 0 +364 0 *
Fa
0  1e-07 12 0
2  12
0101000
+339 0 *
Ve
1e-07
12000 -3000 884
0 0

0101101
*
Ed
 1e-07 1 1 0
1  32 0 0 145
6  63 13 0
6  64 18 0
0

0101000
+337 0 -361 0 *
Ed
 1e-07 1 1 0
1  33 0 0 12000
6  65 13 0
6  66 14 0
0

0101000
-337 0 +355 0 *
Wi

0101100
-349 0 -359 0 +336 0 +335 0 *
Fa
0  1e-07 13 0
2  13
0101000
+334 0 *
Ve
1e-07
12000 -3000 900
0 0

0101101
*
Ed
 1e-07 1 1 0
1  34 0 0 16
6  67 14 0
6  68 18 0
0

0101000
-332 0 +337 0 *
Ed
 1e-07 1 1 0
1  35 0 0 12000
6  69 14 0
6  70 15 0
0

0101000
-332 0 +356 0 *
Wi

0101100
-335 0 -331 0 +330 0 +354 0 *
Fa
0  1e-07 14 0
2  14
0101000
+329 0 *
Ve
1e-07
12000 -2700 900
0 0

0101101
*
Ed
 1e-07 1 1 0
1  36 0 0 12000
6  71 15 0
6  72 16 0
0

0101000
-327 0 +353 0 *
Ed
 1e-07 1 1 0
1  37 0 0 300
6  73 15 0
6  74 18 0
0

0101000
-327 0 +332 0 *
Wi

0101100
-352 0 -326 0 +325 0 +330 0 *
Fa
0  1e-07 15 0
2  15
0101000
+324 0 *
Ve
1e-07
12000 -2700 884
0 0

0101101
*
Ed
 1e-07 1 1 0
1  38 0 0 12000
6  75 16 0
6  76 17 0
0

0101000
-322 0 +351 0 *
Ed
 1e-07 1 1 0
1  39 0 0 16
6  77 16 0
6  78 18 0
0

0101000
-327 0 +322 0 *
Wi

0101100
-321 0 -320 0 +326 0 +350 0 *
Fa
0  1e-07 16 0
2  16
0101000
+319 0 *
Ed
 1e-07 1 1 0
1  40 0 155 300
6  79 17 0
6  80 18 0
0

0101000
+345 0 -322 0 *
Wi

0101100
-348 0 -321 0 +317 0 +343 0 *
Fa
0  1e-07 17 0
2  17
0101000
+316 0 *
Wi

0101100
-331 0 -325 0 +320 0 +336 0 +340 0 +317 0 *
Fa
0  1e-07 18 0
2  18
0101000
+314 0 *
Sh

0101100
-399 0 -392 0 +387 0 -380 0 +373 0 +368 0 -365 0 +362 0 -357 0 -346 0 
+341 0 +338 0 -333 0 -328 0 +323 0 +318 0 -315 0 +313 0 *
So

0100000
+312 0 *
Co

0100000
+311 0 *
Ve
1e-07
0 0 16
0 0

0101101
*
Ve
1e-07
0 0 0
0 0

0101101
*
Ed
 1e-07 1 1 0
1  41 0 0 16
6  81 19 0
6  82 20 0
0

0101000
-309 0 +308 0 *
Ve
1e-07
0 145 16
0 0

0101101
*
Ed
 1e-07 1 1 0
1  42 0 0 145
6  83 19 0
6  84 21 0
0

0101000
+309 0 -306 0 *
Ve
1e-07
0 155 16
0 0

0101101
*
Ed
 1e-07 1 1 0
1  43 0 0 10
6  85 19 0
6  86 22 0
0

0101000
-304 0 +306 0 *
Ve
1e-07
0 300 16
0 0

0101101
*
Ed
 1e-07 1 1 0
1  44 0 155 300
6  87 19 0
6  88 23 0
0

0101000
+304 0 -302 0 *
Ve
1e-07
0 300 0
0 0

0101101
*
Ed
 1e-07 1 1 0
1  45 0 0 16
6  89 19 0
6  90 24 0
0

0101000
-302 0 +300 0 *
Ed
 1e-07 1 1 0
1  46 0 0 300
6  91 19 0
6  92 25 0
0

0101000
-300 0 +308 0 *
Wi

0101100
-307 0 -305 0 -303 0 -301 0 +299 0 +298 0 *
Fa
0  1e-07 19 0
2  19
0101000
+297 0 *
Ve
1e-07
12000 0 0
0 0

0101101
*
Ed
 1e-07 1 1 0
1  47 0 0 12000
6  93 20 0
6  94 25 0
0

0101000
-295 0 +308 0 *
Ve
1e-07
12000 0 16
0 0

0101101
*
Ed
 1e-07 1 1 0
1  48 0 0 16
6  95 20 0
6  96 26 0
0

0101000
-293 0 +295 0 *
Ed
 1e-07 1 1 0
1  49 0 0 12000
6  97 20 0
6  98 21 0
0

0101000
-293 0 +309 0 *
Wi

0101100
-294 0 -292 0 +291 0 +307 0 *
Fa
0  1e-07 20 0
2  20
0101000
+290 0 *
Ve
1e-07
12000 145 16
0 0

0101101
*
Ed
 1e-07 1 1 0
1  50 0 0 12000
6  99 21 0
6  100 27 0
0

0101000
-288 0 +306 0 *
Ed
 1e-07 1 1 0
1  51 0 0 145
6  101 21 0
6  102 26 0
0

0101000
+293 0 -288 0 *
Wi

0101100
-305 0 -287 0 +286 0 +291 0 *
Fa
0  1e-07 21 0
2  21
0101000
+285 0 *
Ve
1e-07
0 145 884
0 0

0101101
*
Ed
 1e-07 1 1 0
1  52 0 0 868
6  103 22 0
6  104 27 0
0

0101000
-283 0 +306 0 *
Ve
1e-07
0 155 884
0 0

0101101
*
Ed
 1e-07 1 1 0
1  53 0 0 10
6  105 22 0
6  106 28 0
0

0101000
-281 0 +283 0 *
Ed
 1e-07 1 1 0
1  54 0 0 868
6  107 22 0
6  108 29 0
0

0101000
-281 0 +304 0 *
Wi

0101100
-282 0 -280 0 +279 0 +303 0 *
Fa
0  1e-07 22 0
2  22
0101000
+278 0 *
Ve
1e-07
12000 300 16
0 0

0101101
*
Ed
 1e-07 1 1 0
1  55 0 0 12000
6  109 23 0
6  110 24 0
0

0101000
-276 0 +302 0 *
Ve
1e-07
12000 155 16
0 0

0101101
*
Ed
 1e-07 1 1 0
1  56 0 155 300
6  111 23 0
6  112 26 0
0

0101000
+274 0 -276 0 *
Ed
 1e-07 1 1 0
1  57 0 0 12000
6  113 23 0
6  114 29 0
0

0101000
-274 0 +304 0 *
Wi

0101100
-301 0 -275 0 +273 0 +272 0 *
Fa
0  1e-07 23 0
2  23
0101000
+271 0 *
Ve
1e-07
12000 300 0
0 0

0101101
*
Ed
 1e-07 1 1 0
1  58 0 0 12000
6  115 24 0
6  116 25 0
0

0101000
-269 0 +300 0 *
Ed
 1e-07 1 1 0
1  59 0 0 16
6  117 24 0
6  118 26 0
0

0101000
-276 0 +269 0 *
Wi

0101100
-268 0 -267 0 +275 0 +299 0 *
Fa
0  1e-07 24 0
2  24
0101000
+266 0 *
Ed
 1e-07 1 1 0
1  60 0 0 300
6  119 25 0
6  120 26 0
0

0101000
-269 0 +295 0 *
Wi

0101100
-298 0 -268 0 +264 0 +294 0 *
Fa
0  1e-07 25 0
2  25
0101000
+263 0 *
Ed
 1e-07 1 1 0
1  61 0 0 10
6  121 26 0
6  122 30 0
0

0101000
-274 0 +288 0 *
Wi

0101100
-292 0 -286 0 -261 0 -273 0 +267 0 +264 0 *
Fa
0  1e-07 26 0
2  26
0101000
+260 0 *
Ve
1e-07
12000 145 884
0 0

0101101
*
Ed
 1e-07 1 1 0
1  62 0 0 868
6  123 27 0
6  124 30 0
0

0101000
-258 0 +288 0 *
Ed
 1e-07 1 1 0
1  63 0 0 12000
6  125 27 0
6  126 31 0
0

0101000
-258 0 +283 0 *
Wi

0101100
-287 0 -257 0 +256 0 +282 0 *
Fa
0  1e-07 27 0
2  27
0101000
+255 0 *
Ve
1e-07
0 0 900
0 0

0101101
*
Ve
1e-07
0 0 884
0 0

0101101
*
Ed
 1e-07 1 1 0
1  64 0 0 16
6  127 28 0
6  128 32 0
0

0101000
-253 0 +252 0 *
Ve
1e-07
0 300 900
0 0

0101101
*
Ed
 1e-07 1 1 0
1  65 0 0 300
6  129 28 0
6  130 33 0
0

0101000
-250 0 +253 0 *
Ve
1e-07
0 300 884
0 0

0101101
*
Ed
 1e-07 1 1 0
1  66 0 0 16
6  131 28 0
6  132 34 0
0

0101000
-250 0 +248 0 *
Ed
 1e-07 1 1 0
1  67 0 0 145
6  133 28 0
6  134 31 0
0

0101000
+252 0 -283 0 *
Ed
 1e-07 1 1 0
1  68 0 155 300
6  135 28 0
6  136 35 0
0

0101000
+281 0 -248 0 *
Wi

0101100
-251 0 -249 0 +247 0 +246 0 +280 0 +245 0 *
Fa
0  1e-07 28 0
2  28
0101000
+244 0 *
Ve
1e-07
12000 155 884
0 0

0101101
*
Ed
 1e-07 1 1 0
1  69 0 0 868
6  137 29 0
6  138 30 0
0

0101000
-242 0 +274 0 *
Ed
 1e-07 1 1 0
1  70 0 0 12000
6  139 29 0
6  140 35 0
0

0101000
-242 0 +281 0 *
Wi

0101100
-272 0 -241 0 +240 0 +279 0 *
Fa
0  1e-07 29 0
2  29
0101000
+239 0 *
Ed
 1e-07 1 1 0
1  71 0 0 10
6  141 30 0
6  142 36 0
0

0101000
-242 0 +258 0 *
Wi

0101100
-257 0 -237 0 +241 0 +261 0 *
Fa
0  1e-07 30 0
2  30
0101000
+236 0 *
Ve
1e-07
12000 0 884
0 0

0101101
*
Ed
 1e-07 1 1 0
1  72 0 0 145
6  143 31 0
6  144 36 0
0

0101000
+234 0 -258 0 *
Ed
 1e-07 1 1 0
1  73 0 0 12000
6  145 31 0
6  146 32 0
0

0101000
-234 0 +252 0 *
Wi

0101100
-246 0 -256 0 +233 0 +232 0 *
Fa
0  1e-07 31 0
2  31
0101000
+231 0 *
Ve
1e-07
12000 0 900
0 0

0101101
*
Ed
 1e-07 1 1 0
1  74 0 0 16
6  147 32 0
6  148 36 0
0

0101000
-229 0 +234 0 *
Ed
 1e-07 1 1 0
1  75 0 0 12000
6  149 32 0
6  150 33 0
0

0101000
-229 0 +253 0 *
Wi

0101100
-232 0 -228 0 +227 0 +251 0 *
Fa
0  1e-07 32 0
2  32
0101000
+226 0 *
Ve
1e-07
12000 300 900
0 0

0101101
*
Ed
 1e-07 1 1 0
1  76 0 0 12000
6  151 33 0
6  152 34 0
0

0101000
-224 0 +250 0 *
Ed
 1e-07 1 1 0
1  77 0 0 300
6  153 33 0
6  154 36 0
0

0101000
-224 0 +229 0 *
Wi

0101100
-249 0 -223 0 +222 0 +227 0 *
Fa
0  1e-07 33 0
2  33
0101000
+221 0 *
Ve
1e-07
12000 300 884
0 0

0101101
*
Ed
 1e-07 1 1 0
1  78 0 0 12000
6  155 34 0
6  156 35 0
0

0101000
-219 0 +248 0 *
Ed
 1e-07 1 1 0
1  79 0 0 16
6  157 34 0
6  158 36 0
0

0101000
-224 0 +219 0 *
Wi

0101100
-218 0 -217 0 +223 0 +247 0 *
Fa
0  1e-07 34 0
2  34
0101000
+216 0 *
Ed
 1e-07 1 1 0
1  80 0 155 300
6  159 35 0
6  160 36 0
0

0101000
+242 0 -219 0 *
Wi

0101100
-245 0 -218 0 +214 0 +240 0 *
Fa
0  1e-07 35 0
2  35
0101000
+213 0 *
Wi

0101100
-228 0 -222 0 +217 0 +233 0 +237 0 +214 0 *
Fa
0  1e-07 36 0
2  36
0101000
+211 0 *
Sh

0101100
-296 0 -289 0 +284 0 -277 0 +270 0 +265 0 -262 0 +259 0 -254 0 -243 0 
+238 0 +235 0 -230 0 -225 0 +220 0 +215 0 -212 0 +210 0 *
So

0100000
+209 0 *
Co

0100000
+208 0 *
Ve
1e-07
0 3000 16
0 0

0101101
*
Ve
1e-07
0 3000 0
0 0

0101101
*
Ed
 1e-07 1 1 0
1  81 0 0 16
6  161 37 0
6  162 38 0
0

0101000
-206 0 +205 0 *
Ve
1e-07
0 3145 16
0 0

0101101
*
Ed
 1e-07 1 1 0
1  82 0 0 145
6  163 37 0
6  164 39 0
0

0101000
+206 0 -203 0 *
Ve
1e-07
0 3155 16
0 0

0101101
*
Ed
 1e-07 1 1 0
1  83 0 0 10
6  165 37 0
6  166 40 0
0

0101000
-201 0 +203 0 *
Ve
1e-07
0 3300 16
0 0

0101101
*
Ed
 1e-07 1 1 0
1  84 0 155 300
6  167 37 0
6  168 41 0
0

0101000
+201 0 -199 0 *
Ve
1e-07
0 3300 0
0 0

0101101
*
Ed
 1e-07 1 1 0
1  85 0 0 16
6  169 37 0
6  170 42 0
0

0101000
-199 0 +197 0 *
Ed
 1e-07 1 1 0
1  86 0 0 300
6  171 37 0
6  172 43 0
0

0101000
-197 0 +205 0 *
Wi

0101100
-204 0 -202 0 -200 0 -198 0 +196 0 +195 0 *
Fa
0  1e-07 37 0
2  37
0101000
+194 0 *
Ve
1e-07
12000 3000 0
0 0

0101101
*
Ed
 1e-07 1 1 0
1  87 0 0 12000
6  173 38 0
6  174 43 0
0

0101000
-192 0 +205 0 *
Ve
1e-07
12000 3000 16
0 0

0101101
*
Ed
 1e-07 1 1 0
1  88 0 0 16
6  175 38 0
6  176 44 0
0

0101000
-190 0 +192 0 *
Ed
 1e-07 1 1 0
1  89 0 0 12000
6  177 38 0
6  178 39 0
0

0101000
-190 0 +206 0 *
Wi

0101100
-191 0 -189 0 +188 0 +204 0 *
Fa
0  1e-07 38 0
2  38
0101000
+187 0 *
Ve
1e-07
12000 3145 16
0 0

0101101
*
Ed
 1e-07 1 1 0
1  90 0 0 12000
6  179 39 0
6  180 45 0
0

0101000
-185 0 +203 0 *
Ed
 1e-07 1 1 0
1  91 0 0 145
6  181 39 0
6  182 44 0
0

0101000
+190 0 -185 0 *
Wi

0101100
-202 0 -184 0 +183 0 +188 0 *
Fa
0  1e-07 39 0
2  39
0101000
+182 0 *
Ve
1e-07
0 3145 884
0 0

0101101
*
Ed
 1e-07 1 1 0
1  92 0 0 868
6  183 40 0
6  184 45 0
0

0101000
-180 0 +203 0 *
Ve
1e-07
0 3155 884
0 0

0101101
*
Ed
 1e-07 1 1 0
1  93 0 0 10
6  185 40 0
6  186 46 0
0

0101000
-178 0 +180 0 *
Ed
 1e-07 1 1 0
1  94 0 0 868
6  187 40 0
6  188 47 0
0

0101000
-178 0 +201 0 *
Wi

0101100
-179 0 -177 0 +176 0 +200 0 *
Fa
0  1e-07 40 0
2  40
0101000
+175 0 *
Ve
1e-07
12000 3300 16
0 0

0101101
*
Ed
 1e-07 1 1 0
1  95 0 0 12000
6  189 41 0
6  190 42 0
0

0101000
-173 0 +199 0 *
Ve
1e-07
12000 3155 16
0 0

0101101
*
Ed
 1e-07 1 1 0
1  96 0 155 300
6  191 41 0
6  192 44 0
0

0101000
+171 0 -173 0 *
Ed
 1e-07 1 1 0
1  97 0 0 12000
6  193 41 0
6  194 47 0
0

0101000
-171 0 +201 0 *
Wi

0101100
-198 0 -172 0 +170 0 +169 0 *
Fa
0  1e-07 41 0
2  41
0101000
+168 0 *
Ve
1e-07
12000 3300 0
0 0

0101101
*
Ed
 1e-07 1 1 0
1  98 0 0 12000
6  195 42 0
6  196 43 0
0

0101000
-166 0 +197 0 *
Ed
 1e-07 1 1 0
1  99 0 0 16
6  197 42 0
6  198 44 0
0

0101000
-173 0 +166 0 *
Wi

0101100
-165 0 -164 0 +172 0 +196 0 *
Fa
0  1e-07 42 0
2  42
0101000
+163 0 *
Ed
 1e-07 1 1 0
1  100 0 0 300
6  199 43 0
6  200 44 0
0

0101000
-166 0 +192 0 *
Wi

0101100
-195 0 -165 0 +161 0 +191 0 *
Fa
0  1e-07 43 0
2  43
0101000
+160 0 *
Ed
 1e-07 1 1 0
1  101 0 0 10
6  201 44 0
6  202 48 0
0

0101000
-171 0 +185 0 *
Wi

0101100
-189 0 -183 0 -158 0 -170 0 +164 0 +161 0 *
Fa
0  1e-07 44 0
2  44
0101000
+157 0 *
Ve
1e-07
12000 3145 884
0 0

0101101
*
Ed
 1e-07 1 1 0
1  102 0 0 868
6  203 45 0
6  204 48 0
0

0101000
-155 0 +185 0 *
Ed
 1e-07 1 1 0
1  103 0 0 12000
6  205 45 0
6  206 49 0
0

0101000
-155 0 +180 0 *
Wi

0101100
-184 0 -154 0 +153 0 +179 0 *
Fa
0  1e-07 45 0
2  45
0101000
+152 0 *
Ve
1e-07
0 3000 900
0 0

0101101
*
Ve
1e-07
0 3000 884
0 0

0101101
*
Ed
 1e-07 1 1 0
1  104 0 0 16
6  207 46 0
6  208 50 0
0

0101000
-150 0 +149 0 *
Ve
1e-07
0 3300 900
0 0

0101101
*
Ed
 1e-07 1 1 0
1  105 0 0 300
6  209 46 0
6  210 51 0
0

0101000
-147 0 +150 0 *
Ve
1e-07
0 3300 884
0 0

0101101
*
Ed
 1e-07 1 1 0
1  106 0 0 16
6  211 46 0
6  212 52 0
0

0101000
-147 0 +145 0 *
Ed
 1e-07 1 1 0
1  107 0 0 145
6  213 46 0
6  214 49 0
0

0101000
+149 0 -180 0 *
Ed
 1e-07 1 1 0
1  108 0 155 300
6  215 46 0
6  216 53 0
0

0101000
+178 0 -145 0 *
Wi

0101100
-148 0 -146 0 +144 0 +143 0 +177 0 +142 0 *
Fa
0  1e-07 46 0
2  46
0101000
+141 0 *
Ve
1e-07
12000 3155 884
0 0

0101101
*
Ed
 1e-07 1 1 0
1  109 0 0 868
6  217 47 0
6  218 48 0
0

0101000
-139 0 +171 0 *
Ed
 1e-07 1 1 0
1  110 0 0 12000
6  219 47 0
6  220 53 0
0

0101000
-139 0 +178 0 *
Wi

0101100
-169 0 -138 0 +137 0 +176 0 *
Fa
0  1e-07 47 0
2  47
0101000
+136 0 *
Ed
 1e-07 1 1 0
1  111 0 0 10
6  221 48 0
6  222 54 0
0

0101000
-139 0 +155 0 *
Wi

0101100
-154 0 -134 0 +138 0 +158 0 *
Fa
0  1e-07 48 0
2  48
0101000
+133 0 *
Ve
1e-07
12000 3000 884
0 0

0101101
*
Ed
 1e-07 1 1 0
1  112 0 0 145
6  223 49 0
6  224 54 0
0

0101000
+131 0 -155 0 *
Ed
 1e-07 1 1 0
1  113 0 0 12000
6  225 49 0
6  226 50 0
0

0101000
-131 0 +149 0 *
Wi

0101100
-143 0 -153 0 +130 0 +129 0 *
Fa
0  1e-07 49 0
2  49
0101000
+128 0 *
Ve
1e-07
12000 3000 900
0 0

0101101
*
Ed
 1e-07 1 1 0
1  114 0 0 16
6  227 50 0
6  228 54 0
0

0101000
-126 0 +131 0 *
Ed
 1e-07 1 1 0
1  115 0 0 12000
6  229 50 0
6  230 51 0
0

0101000
-126 0 +150 0 *
Wi

0101100
-129 0 -125 0 +124 0 +148 0 *
Fa
0  1e-07 50 0
2  50
0101000
+123 0 *
Ve
1e-07
12000 3300 900
0 0

0101101
*
Ed
 1e-07 1 1 0
1  116 0 0 12000
6  231 51 0
6  232 52 0
0

0101000
-121 0 +147 0 *
Ed
 1e-07 1 1 0
1  117 0 0 300
6  233 51 0
6  234 54 0
0

0101000
-121 0 +126 0 *
Wi

0101100
-146 0 -120 0 +119 0 +124 0 *
Fa
0  1e-07 51 0
2  51
0101000
+118 0 *
Ve
1e-07
12000 3300 884
0 0

0101101
*
Ed
 1e-07 1 1 0
1  118 0 0 12000
6  235 52 0
6  236 53 0
0

0101000
-116 0 +145 0 *
Ed
 1e-07 1 1 0
1  119 0 0 16
6  237 52 0
6  238 54 0
0

0101000
-121 0 +116 0 *
Wi

0101100
-115 0 -114 0 +120 0 +144 0 *
Fa
0  1e-07 52 0
2  52
0101000
+113 0 *
Ed
 1e-07 1 1 0
1  120 0 155 300
6  239 53 0
6  240 54 0
0

0101000
+139 0 -116 0 *
Wi

0101100
-142 0 -115 0 +111 0 +137 0 *
Fa
0  1e-07 53 0
2  53
0101000
+110 0 *
Wi

0101100
-125 0 -119 0 +114 0 +130 0 +134 0 +111 0 *
Fa
0  1e-07 54 0
2  54
0101000
+108 0 *
Sh

0101100
-193 0 -186 0 +181 0 -174 0 +167 0 +162 0 -159 0 +156 0 -151 0 -140 0 
+135 0 +132 0 -127 0 -122 0 +117 0 +112 0 -109 0 +107 0 *
So

0100000
+106 0 *
Co

0100000
+105 0 *
Ve
1e-07
0 -3500 1100
0 0

0101101
*
Ve
1e-07
0 -3500 900
0 0

0101101
*
Ed
 1e-07 1 1 0
1  121 0 0 200
6  241 55 0
6  242 56 0
0

0101000
-103 0 +102 0 *
Ve
1e-07
0 3500 1100
0 0

0101101
*
Ed
 1e-07 1 1 0
1  122 0 0 7000
6  243 55 0
6  244 57 0
0

0101000
-100 0 +103 0 *
Ve
1e-07
0 3500 900
0 0

0101101
*
Ed
 1e-07 1 1 0
1  123 0 0 200
6  245 55 0
6  246 58 0
0

0101000
-100 0 +98 0 *
Ed
 1e-07 1 1 0
1  124 0 0 7000
6  247 55 0
6  248 59 0
0

0101000
-98 0 +102 0 *
Wi

0101100
-101 0 -99 0 +97 0 +96 0 *
Fa
0  1e-07 55 0
2  55
0101000
+95 0 *
Ve
1e-07
12000 -3500 1100
0 0

0101101
*
Ve
1e-07
12000 -3500 900
0 0

0101101
*
Ed
 1e-07 1 1 0
1  125 0 0 200
6  249 60 0
6  250 56 0
0

0101000
-93 0 +92 0 *
Ve
1e-07
12000 3500 1100
0 0

0101101
*
Ed
 1e-07 1 1 0
1  126 0 0 7000
6  251 60 0
6  252 57 0
0

0101000
-90 0 +93 0 *
Ve
1e-07
12000 3500 900
0 0

0101101
*
Ed
 1e-07 1 1 0
1  127 0 0 200
6  253 60 0
6  254 58 0
0

0101000
-90 0 +88 0 *
Ed
 1e-07 1 1 0
1  128 0 0 7000
6  255 60 0
6  256 59 0
0

0101000
-88 0 +92 0 *
Wi

0101100
-91 0 -89 0 +87 0 +86 0 *
Fa
0  1e-07 56 0
2  60
0101000
+85 0 *
Ed
 1e-07 1 1 0
1  129 0 0 12000
6  257 56 0
6  258 59 0
0

0101000
-92 0 +102 0 *
Ed
 1e-07 1 1 0
1  130 0 0 12000
6  259 56 0
6  260 57 0
0

0101000
-93 0 +103 0 *
Wi

0101100
-83 0 -91 0 +82 0 +101 0 *
Fa
0  1e-07 57 0
2  56
0101000
+81 0 *
Ed
 1e-07 1 1 0
1  131 0 0 12000
6  261 58 0
6  262 59 0
0

0101000
-88 0 +98 0 *
Ed
 1e-07 1 1 0
1  132 0 0 12000
6  263 58 0
6  264 57 0
0

0101000
-90 0 +100 0 *
Wi

0101100
-79 0 -87 0 +78 0 +97 0 *
Fa
0  1e-07 58 0
2  58
0101000
+77 0 *
Wi

0101100
-96 0 -79 0 +86 0 +83 0 *
Fa
0  1e-07 59 0
2  59
0101000
+75 0 *
Wi

0101100
-99 0 -78 0 +89 0 +82 0 *
Fa
0  1e-07 60 0
2  57
0101000
+73 0 *
Sh

0101100
-94 0 +84 0 -80 0 +76 0 -74 0 +72 0 *
So

0100000
+71 0 *
Ve
1e-07
0 -3650 2100
0 0

0101101
*
Ve
1e-07
0 -3650 1100
0 0

0101101
*
Ed
 1e-07 1 1 0
1  133 0 0 1000
6  265 61 0
6  266 62 0
0

0101000
-69 0 +68 0 *
Ve
1e-07
0 -3350 2100
0 0

0101101
*
Ed
 1e-07 1 1 0
1  134 0 0 300
6  267 61 0
6  268 63 0
0

0101000
-66 0 +69 0 *
Ve
1e-07
0 -3350 1100
0 0

0101101
*
Ed
 1e-07 1 1 0
1  135 0 0 1000
6  269 61 0
6  270 64 0
0

0101000
-66 0 +64 0 *
Ed
 1e-07 1 1 0
1  136 0 0 300
6  271 61 0
6  272 65 0
0

0101000
-64 0 +68 0 *
Wi

0101100
-67 0 -65 0 +63 0 +62 0 *
Fa
0  1e-07 61 0
2  61
0101000
+61 0 *
Ve
1e-07
12000 -3650 2100
0 0

0101101
*
Ve
1e-07
12000 -3650 1100
0 0

0101101
*
Ed
 1e-07 1 1 0
1  137 0 0 1000
6  273 66 0
6  274 62 0
0

0101000
-59 0 +58 0 *
Ve
1e-07
12000 -3350 2100
0 0

0101101
*
Ed
 1e-07 1 1 0
1  138 0 0 300
6  275 66 0
6  276 63 0
0

0101000
-56 0 +59 0 *
Ve
1e-07
12000 -3350 1100
0 0

0101101
*
Ed
 1e-07 1 1 0
1  139 0 0 1000
6  277 66 0
6  278 64 0
0

0101000
-56 0 +54 0 *
Ed
 1e-07 1 1 0
1  140 0 0 300
6  279 66 0
6  280 65 0
0

0101000
-54 0 +58 0 *
Wi

0101100
-57 0 -55 0 +53 0 +52 0 *
Fa
0  1e-07 62 0
2  66
0101000
+51 0 *
Ed
 1e-07 1 1 0
1  141 0 0 12000
6  281 62 0
6  282 65 0
0

0101000
-58 0 +68 0 *
Ed
 1e-07 1 1 0
1  142 0 0 12000
6  283 62 0
6  284 63 0
0

0101000
-59 0 +69 0 *
Wi

0101100
-49 0 -57 0 +48 0 +67 0 *
Fa
0  1e-07 63 0
2  62
0101000
+47 0 *
Ed
 1e-07 1 1 0
1  143 0 0 12000
6  285 64 0
6  286 65 0
0

0101000
-54 0 +64 0 *
Ed
 1e-07 1 1 0
1  144 0 0 12000
6  287 64 0
6  288 63 0
0

0101000
-56 0 +66 0 *
Wi

0101100
-45 0 -53 0 +44 0 +63 0 *
Fa
0  1e-07 64 0
2  64
0101000
+43 0 *
Wi

0101100
-62 0 -45 0 +52 0 +49 0 *
Fa
0  1e-07 65 0
2  65
0101000
+41 0 *
Wi

0101100
-65 0 -44 0 +55 0 +48 0 *
Fa
0  1e-07 66 0
2  63
0101000
+39 0 *
Sh

0101100
-60 0 +50 0 -46 0 +42 0 -40 0 +38 0 *
So

0100000
+37 0 *
Ve
1e-07
0 3350 2100
0 0

0101101
*
Ve
1e-07
0 3350 1100
0 0

0101101
*
Ed
 1e-07 1 1 0
1  145 0 0 1000
6  289 67 0
6  290 68 0
0

0101000
-35 0 +34 0 *
Ve
1e-07
0 3650 2100
0 0

0101101
*
Ed
 1e-07 1 1 0
1  146 0 0 300
6  291 67 0
6  292 69 0
0

0101000
-32 0 +35 0 *
Ve
1e-07
0 3650 1100
0 0

0101101
*
Ed
 1e-07 1 1 0
1  147 0 0 1000
6  293 67 0
6  294 70 0
0

0101000
-32 0 +30 0 *
Ed
 1e-07 1 1 0
1  148 0 0 300
6  295 67 0
6  296 71 0
0

0101000
-30 0 +34 0 *
Wi

0101100
-33 0 -31 0 +29 0 +28 0 *
Fa
0  1e-07 67 0
2  67
0101000
+27 0 *
Ve
1e-07
12000 3350 2100
0 0

0101101
*
Ve
1e-07
12000 3350 1100
0 0

0101101
*
Ed
 1e-07 1 1 0
1  149 0 0 1000
6  297 72 0
6  298 68 0
0

0101000
-25 0 +24 0 *
Ve
1e-07
12000 3650 2100
0 0

0101101
*
Ed
 1e-07 1 1 0
1  150 0 0 300
6  299 72 0
6  300 69 0
0

0101000
-22 0 +25 0 *
Ve
1e-07
12000 3650 1100
0 0

0101101
*
Ed
 1e-07 1 1 0
1  151 0 0 1000
6  301 72 0
6  302 70 0
0

0101000
-22 0 +20 0 *
Ed
 1e-07 1 1 0
1  152 0 0 300
6  303 72 0
6  304 71 0
0

0101000
-20 0 +24 0 *
Wi

0101100
-23 0 -21 0 +19 0 +18 0 *
Fa
0  1e-07 68 0
2  72
0101000
+17 0 *
Ed
 1e-07 1 1 0
1  153 0 0 12000
6  305 68 0
6  306 71 0
0

0101000
-24 0 +34 0 *
Ed
 1e-07 1 1 0
1  154 0 0 12000
6  307 68 0
6  308 69 0
0

0101000
-25 0 +35 0 *
Wi

0101100
-15 0 -23 0 +14 0 +33 0 *
Fa
0  1e-07 69 0
2  68
0101000
+13 0 *
Ed
 1e-07 1 1 0
1  155 0 0 12000
6  309 70 0
6  310 71 0
0

0101000
-20 0 +30 0 *
Ed
 1e-07 1 1 0
1  156 0 0 12000
6  311 70 0
6  312 69 0
0

0101000
-22 0 +32 0 *
Wi

0101100
-11 0 -19 0 +10 0 +29 0 *
Fa
0  1e-07 70 0
2  70
0101000
+9 0 *
Wi

0101100
-28 0 -11 0 +18 0 +15 0 *
Fa
0  1e-07 71 0
2  71
0101000
+7 0 *
Wi

0101100
-31 0 -10 0 +21 0 +14 0 *
Fa
0  1e-07 72 0
2  69
0101000
+5 0 *
Sh

0101100
-26 0 +16 0 -12 0 +8 0 -6 0 +4 0 *
So

0100000
+3 0 *
Co

1100000
+310 0 +207 0 +104 0 +70 0 +36 0 +2 0 *

+1 0 